HIERARCHY
ROOT Hips
{
	OFFSET 0.000000 0.000000 0.000000
	CHANNELS 6 Xposition Yposition Zposition Zrotation Yrotation Xrotation 
	JOINT LHipJoint
	{
		OFFSET 0.000000 0.000000 0.000000
		CHANNELS 3 Zrotation Yrotation Xrotation
		JOINT LeftUpLeg
		{
			OFFSET 1.363060 -1.794630 0.839290
			CHANNELS 3 Zrotation Yrotation Xrotation
			JOINT LeftLeg
			{
				OFFSET 2.448110 -6.726130 0.000000
				CHANNELS 3 Zrotation Yrotation Xrotation
				JOINT LeftFoot
				{
					OFFSET 2.562200 -7.039590 0.000000
					CHANNELS 3 Zrotation Yrotation Xrotation
					JOINT LeftToeBase
					{
						OFFSET 0.157640 -0.433110 2.322550
						CHANNELS 3 Zrotation Yrotation Xrotation
						End Site
						{
							OFFSET 0.000000 0.000000 0.000000
						}
					}
				}
			}
		}
	}
	JOINT RHipJoint
	{
		OFFSET 0.000000 0.000000 0.000000
		CHANNELS 3 Zrotation Yrotation Xrotation
		JOINT RightUpLeg
		{
			OFFSET -1.305520 -1.794630 0.839290
			CHANNELS 3 Zrotation Yrotation Xrotation
			JOINT RightLeg
			{
				OFFSET -2.542530 -6.985550 0.000000
				CHANNELS 3 Zrotation Yrotation Xrotation
				JOINT RightFoot
				{
					OFFSET -2.568260 -7.056230 0.000000
					CHANNELS 3 Zrotation Yrotation Xrotation
					JOINT RightToeBase
					{
						OFFSET -0.164730 -0.452590 2.363150
						CHANNELS 3 Zrotation Yrotation Xrotation
						End Site
						{
							OFFSET 0.000000 0.000000 0.000000
						}
					}
				}
			}
		}
	}
	JOINT LowerBack
	{
		OFFSET 0.000000 0.000000 0.000000
		CHANNELS 3 Zrotation Yrotation Xrotation
		JOINT Spine
		{
			OFFSET 0.028270 2.035590 -0.193380
			CHANNELS 3 Zrotation Yrotation Xrotation
			JOINT Spine1
			{
				OFFSET 0.056720 2.048850 -0.042750
				CHANNELS 3 Zrotation Yrotation Xrotation
				JOINT Neck
				{
					OFFSET 0.000000 0.000000 0.000000
					CHANNELS 3 Zrotation Yrotation Xrotation
					JOINT Neck1
					{
						OFFSET -0.054170 1.746240 0.172020
						CHANNELS 3 Zrotation Yrotation Xrotation
						JOINT Head
						{
							OFFSET 0.104070 1.761360 -0.123970
							CHANNELS 3 Zrotation Yrotation Xrotation
							End Site
							{
								OFFSET 0.000000 0.000000 0.000000
							}
						}
					}
				}
				JOINT LeftShoulder
				{
					OFFSET 0.000000 0.000000 0.000000
					CHANNELS 3 Zrotation Yrotation Xrotation
					JOINT LeftArm
					{
						OFFSET 3.362410 1.200890 -0.311210
						CHANNELS 3 Zrotation Yrotation Xrotation
						JOINT LeftForeArm
						{
							OFFSET 4.983000 -0.000000 -0.000000
							CHANNELS 3 Zrotation Yrotation Xrotation
							JOINT LeftHand
							{
								OFFSET 3.483560 -0.000000 -0.000000
								CHANNELS 3 Zrotation Yrotation Xrotation
								JOINT LeftFingerBase
								{
									OFFSET 0.000000 0.000000 0.000000
									CHANNELS 3 Zrotation Yrotation Xrotation
									JOINT LeftHandIndex1
									{
										OFFSET 0.715260 -0.000000 -0.000000
										CHANNELS 3 Zrotation Yrotation Xrotation
										End Site
										{
											OFFSET 0.000000 0.000000 0.000000
										}
									}
								}
								JOINT LThumb
								{
									OFFSET 0.000000 0.000000 0.000000
									CHANNELS 3 Zrotation Yrotation Xrotation
									End Site
									{
										OFFSET 0.000000 0.000000 0.000000
									}
								}
							}
						}
					}
				}
				JOINT RightShoulder
				{
					OFFSET 0.000000 0.000000 0.000000
					CHANNELS 3 Zrotation Yrotation Xrotation
					JOINT RightArm
					{
						OFFSET -3.136600 1.374050 -0.404650
						CHANNELS 3 Zrotation Yrotation Xrotation
						JOINT RightForeArm
						{
							OFFSET -5.241900 -0.000000 -0.000000
							CHANNELS 3 Zrotation Yrotation Xrotation
							JOINT RightHand
							{
								OFFSET -3.444170 -0.000000 -0.000000
								CHANNELS 3 Zrotation Yrotation Xrotation
								JOINT RightFingerBase
								{
									OFFSET 0.000000 0.000000 0.000000
									CHANNELS 3 Zrotation Yrotation Xrotation
									JOINT RightHandIndex1
									{
										OFFSET -0.622530 -0.000000 -0.000000
										CHANNELS 3 Zrotation Yrotation Xrotation
										End Site
										{
											OFFSET 0.000000 0.000000 0.000000
										}
									}
								}
								JOINT RThumb
								{
									OFFSET 0.000000 0.000000 0.000000
									CHANNELS 3 Zrotation Yrotation Xrotation
									End Site
									{
										OFFSET 0.000000 0.000000 0.000000
									}
								}
							}
						}
					}
				}
			}
		}
	}
}
MOTION
Frames: 10
Frame Time: 0.008333
0.159524 18.371970 8.286520 -11.384477 3.103023 14.922326 6.844511 4.237481 -2.526377 -14.801702 -44.573042 14.570998 -3.566865 -2.191647 -3.291443 -15.264085 45.186467 -26.024132 1.994600 8.854700 25.342000 -0.165585 -4.085806 -0.833912 25.134388 26.160806 -1.955689 3.648445 -1.223075 3.783050 9.089975 -28.608075 -7.885080 -0.129900 -2.322900 6.398900 -0.797206 2.840669 7.664904 20.067046 9.106529 -32.076304 -12.700272 -0.356160 -6.151557 -26.450045 -12.739778 4.042734 24.830002 -22.368840 15.138319 5.605000 -10.291500 5.946400 -8.825210 -7.024643 1.890166 -87.915984 12.289620 16.441430 11.282712 -12.643695 -2.435397 -0.182712 3.413717 29.720097 29.713033 -20.494482 -13.702300 -7.125000 0.000000 0.000000 1.504800 3.118300 -1.421200 11.698206 7.738920 1.935519 82.227430 -14.156635 -0.629072 -12.929481 16.852674 -2.441857 1.247518 0.549483 48.553548 -5.974882 -30.509476 3.374400 7.125000 0.000000 0.000000 29.031600 -59.500300 -10.836500 
0.158578 18.372917 8.286205 -11.488431 3.080982 14.848510 6.931552 4.254206 -2.489874 -14.780357 -44.476894 14.571872 -3.571871 -2.212854 -3.290609 -15.258968 45.154545 -25.985606 1.944000 8.748400 25.011300 -0.067609 -4.096133 -0.764248 25.145957 26.204094 -1.930837 3.650083 -1.216988 3.769971 9.066381 -28.541105 -7.967477 -0.148800 -2.485800 6.850200 -1.174250 2.785399 7.465226 21.185275 9.182694 -31.405118 -12.824244 -0.516630 -6.464511 -26.461165 -13.000094 2.792924 23.330884 -22.524388 17.053645 5.202800 -10.256000 6.393400 -8.958421 -6.954205 1.851320 -88.241439 12.305085 15.995962 11.299475 -12.662243 -2.446056 -0.173036 3.445086 29.697275 29.835797 -20.841033 -13.970300 -7.125000 0.000000 0.000000 1.521500 2.669500 -1.449500 11.508507 7.747600 1.976217 81.925368 -14.126417 -0.150662 -12.900016 16.860382 -2.440031 1.252223 0.557775 48.450176 -5.943858 -30.670127 3.373400 7.125000 0.000000 0.000000 29.216200 -59.638900 -11.011100 
0.158052 18.371760 8.285574 -11.575045 3.022912 14.831440 7.001284 4.266467 -2.455591 -14.730850 -44.425600 14.531838 -3.578044 -2.230921 -3.286320 -15.224601 45.095876 -26.081534 1.901300 8.657300 24.729200 0.017971 -4.103211 -0.710393 25.131979 26.297646 -1.936189 3.650688 -1.208901 3.739701 9.062092 -28.531338 -7.975959 -0.186400 -2.780700 7.668800 -1.499243 2.728886 7.245644 22.158436 9.226939 -30.818763 -12.905421 -0.667546 -6.752361 -26.435146 -13.236650 1.555668 21.884362 -22.589508 18.924292 4.816600 -10.204200 6.840600 -9.074234 -6.886994 1.818076 -88.566661 12.346044 15.469528 11.329428 -12.694459 -2.456500 -0.172246 3.461926 29.822591 29.976622 -20.939345 -14.109100 -7.125000 0.000000 0.000000 1.597700 2.512400 -1.526800 11.336129 7.758019 2.019956 81.629552 -14.094369 0.267399 -12.862412 16.854863 -2.432298 1.249629 0.560085 48.491956 -5.897418 -30.661862 3.345500 7.125000 0.000000 0.000000 29.259900 -59.620300 -11.016100 
0.156790 18.369972 8.283786 -11.649287 2.983660 14.804553 7.080449 4.275952 -2.420493 -14.659877 -44.284702 14.422649 -3.581500 -2.249165 -3.279817 -15.195841 45.017492 -26.007004 1.822100 8.485300 24.198000 0.111246 -4.114576 -0.651456 25.108465 26.404037 -1.925656 3.651555 -1.198958 3.696525 9.087924 -28.608680 -7.950803 -0.205700 -2.919900 8.055800 -1.897021 2.634957 7.009401 23.288942 9.221353 -30.149618 -12.904440 -0.882638 -7.226584 -26.002921 -13.676317 -0.521918 18.968272 -22.577947 22.191518 4.025000 -10.140100 7.591000 -9.234629 -6.768035 1.792293 -89.004628 12.498412 14.822175 11.358503 -12.721498 -2.463136 -0.183116 3.475155 29.991379 30.156682 -20.921214 -14.206200 -7.125000 0.000000 0.000000 1.725200 2.484200 -1.649600 11.092383 7.757378 2.095630 81.241921 -14.169452 0.885316 -12.814708 16.865352 -2.424717 1.245501 0.565700 48.457414 -5.881494 -30.659456 3.333600 7.125000 0.000000 0.000000 29.280400 -59.613900 -11.020100 
0.152373 18.371970 8.284101 -11.298764 2.810517 14.889906 7.098817 4.291878 -2.410646 -15.094706 -44.346746 14.429626 -3.594012 -2.251829 -3.248627 -15.150038 45.002306 -26.276947 1.768600 8.366400 23.832600 0.167616 -4.113238 -0.638682 24.588758 26.659736 -1.867361 3.663503 -1.120677 3.457579 9.213217 -28.914026 -7.845985 -0.187800 -2.790800 7.696900 -2.584095 2.504975 6.824086 23.888325 9.108419 -29.847302 -12.667797 -1.018372 -7.358971 -26.597521 -13.596557 -0.862761 19.142686 -22.432164 22.607546 4.131500 -10.048300 7.771900 -9.297295 -6.754824 1.754700 -89.375743 12.509943 14.221617 11.380217 -12.718531 -2.468382 -0.190028 3.495239 30.103466 30.341880 -20.950152 -14.336100 -7.125000 0.000000 0.000000 1.844400 2.391200 -1.766800 11.026336 7.760209 2.123664 80.720825 -14.096222 1.812579 -12.649837 16.707400 -2.381487 1.255668 0.623966 48.064972 -4.923165 -30.860136 2.827300 7.125000 0.000000 0.000000 30.493300 -59.599700 -11.519000 
0.147852 18.380278 8.304292 -11.179157 2.937238 15.360127 7.117725 4.260383 -2.523203 -15.030344 -44.652309 14.132742 -3.588335 -2.243838 -3.284027 -15.166087 45.075971 -26.470294 1.703400 8.218900 23.381000 0.211667 -4.090671 -0.729404 24.313948 26.829997 -1.913382 3.693202 -0.938325 2.920304 9.345025 -29.304650 -7.822758 -0.208600 -2.940500 8.113200 -2.841846 2.411075 6.570828 24.045332 9.212462 -30.774520 -12.399236 -1.048914 -6.787530 -24.435485 -13.512607 0.189870 15.666961 -21.713456 19.906902 3.326600 -10.047300 6.706600 -9.393469 -6.951169 1.756010 -89.728718 12.693800 14.246994 11.586460 -12.932591 -2.494810 -0.214626 3.349755 30.474266 29.757568 -19.473100 -13.141400 -7.125000 0.000000 0.000000 1.729700 4.339800 -1.594600 10.659759 7.682481 2.129078 80.449681 -14.128436 2.759331 -12.389902 16.433346 -2.317126 1.266777 0.733456 47.461548 -2.850790 -31.121469 1.703100 7.125000 0.000000 0.000000 32.926700 -59.402900 -12.403400 
0.145328 18.383222 8.310180 -10.877723 2.892902 15.628965 7.009918 4.212610 -2.599695 -15.165694 -44.818728 14.008710 -3.587906 -2.220011 -3.274702 -15.124743 45.076062 -26.726271 1.668200 8.137700 23.133100 0.115920 -4.091165 -0.824927 24.021942 26.965862 -1.924014 3.709704 -0.849971 2.666317 9.410312 -29.471027 -7.883805 -0.245900 -3.191300 8.811700 -2.614309 2.381966 6.939866 23.057011 9.075882 -31.798550 -12.074952 -1.049201 -6.950243 -24.457927 -13.460425 0.216928 15.438887 -21.669282 20.540102 3.301100 -10.023100 6.847800 -9.244686 -6.882250 1.832551 -89.800786 13.224573 14.280735 11.654793 -13.020431 -2.505596 -0.227661 3.307908 30.432766 29.599117 -19.174275 -12.873900 -7.125000 0.000000 0.000000 1.676800 4.757100 -1.532600 10.752962 7.650952 2.194398 80.428053 -14.562406 3.198783 -12.291110 16.337866 -2.289516 1.258770 0.802156 47.161706 -1.732197 -31.131388 1.076000 7.125000 0.000000 0.000000 34.117100 -59.180700 -12.733100 
0.144486 18.382065 8.308182 -10.835381 2.901096 15.667613 6.996610 4.184521 -2.618302 -15.138707 -44.776633 13.908203 -3.588960 -2.202728 -3.219389 -15.038531 44.934417 -26.760877 1.659400 8.117200 23.070800 0.107225 -4.102009 -0.834670 23.978637 27.000738 -1.948682 3.711406 -0.853717 2.663400 9.409997 -29.468916 -7.934602 -0.252800 -3.235000 8.933600 -2.576164 2.346937 7.163822 23.096325 9.029538 -31.988216 -12.019022 -1.129093 -7.236044 -24.639344 -13.377931 0.108925 15.318352 -21.536351 20.859598 3.313400 -9.962600 6.932700 -9.217467 -6.830178 1.840422 -89.989551 13.458150 13.871176 11.649672 -13.022228 -2.511216 -0.221401 3.341128 30.469689 29.788106 -19.493621 -13.161300 -7.125000 0.000000 0.000000 1.747900 4.323600 -1.611900 10.708616 7.632527 2.219086 80.311672 -14.768842 3.516077 -12.280279 16.355416 -2.287345 1.250510 0.809042 47.118022 -1.669939 -31.042323 1.034800 7.125000 0.000000 0.000000 34.100100 -59.090100 -12.650300 
0.143435 18.382696 8.306710 -10.993443 2.989251 15.572198 7.120489 4.195559 -2.573080 -15.077079 -44.757863 13.886847 -3.595574 -2.218119 -3.171879 -14.974230 44.803644 -26.807189 1.624200 8.035100 22.820700 0.253543 -4.127021 -0.730078 24.004284 27.065381 -1.937180 3.711641 -0.858912 2.662176 9.413782 -29.485957 -7.994909 -0.264900 -3.311100 9.146200 -3.091683 2.168058 6.877818 24.929059 9.016910 -30.996591 -12.194801 -1.441285 -7.644000 -25.459018 -13.160818 -0.340923 15.332883 -21.106240 20.986063 3.426300 -9.766200 7.039300 -9.382143 -6.818172 1.726091 -90.697389 13.300776 12.551660 11.665304 -13.019436 -2.520311 -0.199734 3.385852 30.879634 30.029351 -19.717492 -13.434200 -7.125000 0.000000 0.000000 1.870800 3.973800 -1.737600 10.421331 7.646116 2.222832 79.639430 -14.613311 4.455315 -12.187224 16.303427 -2.266314 1.249335 0.807380 47.092075 -1.681349 -31.008166 1.040400 7.125000 0.000000 0.000000 34.053200 -59.062900 -12.607600 
0.142594 18.383327 8.305238 -11.033824 2.987654 15.577158 7.122897 4.195369 -2.565889 -14.983943 -44.720937 13.824660 -3.594921 -2.222529 -3.182505 -14.957154 44.769856 -26.800888 1.549600 7.857100 22.280700 0.255756 -4.124719 -0.728584 24.047857 27.068105 -1.957785 3.708794 -0.870306 2.691262 9.403722 -29.463729 -7.959475 -0.260400 -3.282700 9.066800 -3.073093 2.170207 6.859161 24.959426 9.019010 -30.939494 -12.221257 -1.441736 -7.649586 -25.539707 -13.138827 -0.378772 15.416858 -21.085747 21.084819 3.450700 -9.747300 7.071700 -9.387618 -6.818279 1.730189 -90.645400 13.252282 12.304560 11.627679 -12.978386 -2.512786 -0.191952 3.403808 31.130131 30.162966 -19.757558 -13.536600 -7.125000 0.000000 0.000000 1.954100 3.882400 -1.818400 10.430905 7.653031 2.224540 79.643772 -14.562908 4.388917 -12.172256 16.278342 -2.261012 1.251544 0.801839 47.187667 -1.717743 -31.010213 1.061700 7.125000 0.000000 0.000000 34.015100 -59.072200 -12.599000 
